<svg xmlns="http://www.w3.org/2000/svg" xmlns:xlink="http://www.w3.org/1999/xlink" viewBox="0 0 493.14188 493.14188"><defs><style>.cls-1{fill:url(#未命名的渐变_46);}.cls-10,.cls-11,.cls-12,.cls-13,.cls-2,.cls-3,.cls-4,.cls-5,.cls-6,.cls-7,.cls-8,.cls-9{fill-rule:evenodd;}.cls-3{fill:#6d6d6d;}.cls-4{fill:#e60012;}.cls-13,.cls-5{fill:#fff;}.cls-5{stroke:#fff;stroke-miterlimit:10;}.cls-6{fill:#30a9cf;}.cls-7{fill:#040000;}.cls-8{fill:#231815;}.cls-9{fill:url(#未命名的渐变_61);}.cls-10{fill:url(#未命名的渐变_61-2);}.cls-11{fill:url(#未命名的渐变_61-3);}.cls-12{fill:url(#未命名的渐变_61-4);}</style><radialGradient id="未命名的渐变_46" cx="246.57094" cy="246.57094" r="246.57094" gradientUnits="userSpaceOnUse"><stop offset="0.37678" stop-color="#00b7e6" stop-opacity="0.96"/><stop offset="0.49764" stop-color="#03b8e6" stop-opacity="0.94733"/><stop offset="0.58507" stop-color="#0ebbe7" stop-opacity="0.90675"/><stop offset="0.66198" stop-color="#20c0e9" stop-opacity="0.83796"/><stop offset="0.73282" stop-color="#3ac7ec" stop-opacity="0.74086"/><stop offset="0.79951" stop-color="#5cd1ef" stop-opacity="0.61527"/><stop offset="0.86312" stop-color="#85dcf3" stop-opacity="0.46102"/><stop offset="0.92431" stop-color="#b5eaf8" stop-opacity="0.27784"/><stop offset="0.9821" stop-color="#ecfafd" stop-opacity="0.07106"/><stop offset="1" stop-color="#fff" stop-opacity="0"/></radialGradient><linearGradient id="未命名的渐变_61" x1="1352.59999" y1="1582.56" x2="1352.59999" y2="1536.48" gradientUnits="userSpaceOnUse"><stop offset="0.21973" stop-color="#36b058" stop-opacity="0.96"/><stop offset="0.28853" stop-color="#36b058" stop-opacity="0.94648"/><stop offset="0.32643" stop-color="#36b058" stop-opacity="0.90097"/><stop offset="0.40615" stop-color="#3bb25c" stop-opacity="0.90325"/><stop offset="0.50011" stop-color="#49b768" stop-opacity="0.91013"/><stop offset="0.60134" stop-color="#60c07b" stop-opacity="0.92155"/><stop offset="0.70766" stop-color="#80cd96" stop-opacity="0.9375"/><stop offset="0.81804" stop-color="#aadeb8" stop-opacity="0.95802"/><stop offset="0.93006" stop-color="#dcf1e2" stop-opacity="0.9827"/><stop offset="1" stop-color="#fff"/></linearGradient><linearGradient id="未命名的渐变_61-2" x1="1392.91999" y1="1582.56" x2="1392.91999" y2="1536.48" xlink:href="#未命名的渐变_61"/><linearGradient id="未命名的渐变_61-3" x1="1430.35999" y1="1582.56" x2="1430.35999" y2="1536.48" xlink:href="#未命名的渐变_61"/><linearGradient id="未命名的渐变_61-4" x1="1473.55999" y1="1582.56" x2="1473.55999" y2="1536.48" xlink:href="#未命名的渐变_61"/></defs><title>f61d logo 2</title><g id="图层_2" data-name="图层 2"><circle class="cls-1" cx="246.57094" cy="246.57094" r="246.57094"/><path class="cls-2" d="M1600.52,1507.92h11.52v5.76h-5.76v5.76h-5.76v5.76h-5.76v5.76H1589v17.28h-5.76V1554H1589v17.28h-5.76v5.76H1560.2v5.76h11.52v5.76h11.52v17.28h-17.28v-5.76h11.52v-5.76h-11.52v-5.76h-11.52v5.76h11.52v5.76h-23.04v11.52h-5.76v11.52h-11.52v-5.76h-5.76v-5.76h-5.76v-5.76h-5.76v-5.76h5.76v-5.76h5.76v11.52h11.52v-11.52h-11.52v-5.76h5.76v-5.76h5.76v-5.76h5.76v11.52h11.52v-5.76h5.76v-11.52h11.52v-11.52h11.52v5.76h-5.76v5.76h5.76v-5.76h5.76v-5.76h-5.76v-17.28h-5.76v5.76h-5.76v-5.76h-11.52v5.76h-5.76V1554h-5.76v5.76h-5.76v5.76h11.52v5.76h-5.76v5.76h-5.76v-5.76h-11.52v-11.52h5.76V1554h5.76v-5.76h5.76v-5.76h5.76v-5.76h28.8v-5.76h5.76v-5.76h-5.76v-5.76h17.28v-5.76h5.76Z" transform="translate(-1170.7519 -1154.14907)"/><path class="cls-2" d="M1554.44,1548.24h11.52v11.52h-5.76v5.76h-11.52v-5.76h5.76Z" transform="translate(-1170.7519 -1154.14907)"/><path class="cls-3" d="M1554.44,1542.48h11.52v5.76h-11.52Z" transform="translate(-1170.7519 -1154.14907)"/><path class="cls-3" d="M1571.72,1542.48h5.76v17.28h-11.52v-11.52h5.76Z" transform="translate(-1170.7519 -1154.14907)"/><path class="cls-3" d="M1548.68,1548.24h5.76v11.52h-5.76v5.76h-11.52v-5.76h5.76V1554h5.76Z" transform="translate(-1170.7519 -1154.14907)"/><path class="cls-3" d="M1560.2,1559.76h5.76v11.52h-11.52v11.52h-5.76v5.76h-11.52v-11.52h5.76v-5.76h5.76v-5.76h11.52Z" transform="translate(-1170.7519 -1154.14907)"/><path class="cls-3" d="M1577.48,1559.76h5.76v5.76h-5.76Z" transform="translate(-1170.7519 -1154.14907)"/><path class="cls-3" d="M1571.72,1565.52h5.76v5.76h-5.76Z" transform="translate(-1170.7519 -1154.14907)"/><path class="cls-3" d="M1554.44,1588.56h11.52v5.76h-11.52Z" transform="translate(-1170.7519 -1154.14907)"/><path class="cls-3" d="M1519.88,1594.32h11.52v11.52h-11.52Z" transform="translate(-1170.7519 -1154.14907)"/><path class="cls-3" d="M1565.96,1594.32h11.52v5.76h-11.52Z" transform="translate(-1170.7519 -1154.14907)"/><path class="cls-4" d="M1606.28,1490.64h5.76v11.52h5.76v-5.76h5.76v11.52h5.76v5.76h-17.28v-5.76h-5.76Z" transform="translate(-1170.7519 -1154.14907)"/></g><g id="图层_1" data-name="图层 1"><path class="cls-5" d="M1406.56283,1228.56h11.52v11.52h5.76v23.04h5.76v11.52h5.76v11.52h5.76v11.52h5.76v5.76h5.76v11.52h5.76v5.76h5.76v5.76h5.76v5.76h5.76V1338h11.52v5.76h5.76v5.76h5.76v5.76h5.76v5.76h5.76v11.52h5.76v5.76h5.76v5.76h5.76v5.76h5.76v11.52h5.76v11.52h5.76v11.52h5.76v46.08h-5.76V1482h-5.76v5.76h-5.76v5.76h-11.52v5.76h-17.28v-5.76h-17.28v-5.76h-11.52V1482h-11.52v-5.76h-5.76v-5.76h-5.76v-5.76h-5.76v-5.76h-5.76v-5.76h-5.76v-11.52h-5.76v-5.76h-5.76v-17.28h-5.76v17.28h5.76v28.8h5.76V1482h5.76v11.52h5.76v5.76h5.76v5.76h5.76v5.76h5.76v5.76h-92.16v-5.76h5.76v-5.76h5.76v-5.76h5.76v-5.76h5.76V1482h5.76v-17.28h5.76v-28.8h5.76v-17.28h-5.76v17.28h-5.76v5.76h-5.76v11.52h-5.76v5.76h-5.76v5.76h-5.76v5.76h-5.76v5.76h-5.76V1482h-11.52v5.76h-11.52v5.76h-17.28v5.76h-17.28v-5.76h-11.52v-5.76h-5.76V1482h-5.76v-11.52h-5.76V1424.4h5.76v-11.52h5.76v-11.52h5.76v-11.52h5.76v-5.76h5.76v-5.76h5.76v-5.76h5.76v-11.52h5.76v-5.76h5.76v-5.76h5.76v-5.76h5.76V1338h11.52v-5.76h5.76v-5.76h5.76v-5.76h5.76v-5.76h5.76v-11.52h5.76v-5.76h5.76v-11.52h5.76v-11.52h5.76v-11.52h5.76v-23.04h5.76Z" transform="translate(-1170.7519 -1154.14907)"/><path class="cls-6" d="M1400.72,1274v17.28h-5.76v11.52h-5.76v5.76h-5.76v11.52h-5.76v5.76h-5.76v5.76h-5.76v11.52h-5.76v5.76h-5.76v5.76h-5.76v5.76h-5.76v5.76h-5.76v11.52h-5.76v5.76h-5.76v5.76h-5.76v5.76h-5.76v5.76h5.76v-5.76h5.76v-5.76h5.76v-5.76h5.76v-5.76h5.76v-5.76h11.52v-5.76h34.56v5.76h5.76v5.76h5.76v11.52h5.76V1274Z" transform="translate(-1170.7519 -1154.14907)"/><path class="cls-6" d="M1354.64,1377.68v5.76h-5.76v5.76h-11.52v5.76h-5.76v5.76h-5.76v5.76h-5.76v5.76h-5.76V1418h-5.76v5.76h-5.76v5.76h-5.76v17.28h-5.76v28.8h5.76v5.76h11.52v5.76h11.52v-5.76h17.28v-5.76h5.76v-5.76h11.52v-5.76h5.76v-5.76h5.76v-5.76h5.76v-11.52h5.76v-5.76h5.76v-11.52h5.76v-11.52h5.76V1389.2h-5.76v-11.52Z" transform="translate(-1170.7519 -1154.14907)"/><path class="cls-6" d="M1418,1274v115.2h5.76v-11.52h5.76v-5.76h5.76v-5.76h34.56v5.76h11.52v5.76h5.76v5.76h5.76v5.76h5.76v5.76h5.76v5.76h5.76v-5.76h-5.76v-5.76h-5.76v-5.76h-5.76v-5.76h-5.76v-11.52h-5.76v-5.76h-5.76v-5.76h-5.76v-5.76h-5.76v-5.76h-5.76V1331.6h-5.76v-5.76h-5.76v-5.76h-5.76v-11.52h-5.76v-5.76h-5.76v-11.52h-5.76V1274Z" transform="translate(-1170.7519 -1154.14907)"/><path class="cls-6" d="M1435.28,1377.68v11.52h-5.76v23.04h5.76v11.52h5.76v11.52h5.76v5.76h5.76v11.52h5.76v5.76h5.76v5.76h5.76v5.76h11.52v5.76h5.76v5.76h17.28v5.76h11.52v-5.76h11.52v-5.76h5.76v-28.8h-5.76v-17.28h-5.76v-5.76h-5.76V1418h-5.76v-5.76h-5.76v-5.76h-5.76v-5.76h-5.76v-5.76h-5.76v-5.76H1475.6v-5.76h-5.76v-5.76Z" transform="translate(-1170.7519 -1154.14907)"/><path class="cls-7" d="M1418,1233.68h11.52v11.52h5.76v23.04h5.76v11.52h5.76v11.52h5.76v11.52h-5.76v-5.76h-5.76v-11.52h-5.76V1274h-5.76v-11.52h-5.76v-23.04H1418Z" transform="translate(-1170.7519 -1154.14907)"/><path class="cls-7" d="M1418,1274h5.76v17.28h5.76v86.4h-5.76v11.52H1418Z" transform="translate(-1170.7519 -1154.14907)"/><path class="cls-7" d="M1400.72,1279.76h5.76v28.8h-5.76v5.76h-5.76v11.52h-5.76v5.76h-5.76v5.76h-5.76v11.52h-5.76v5.76h-5.76v5.76h-5.76v5.76h-5.76v5.76h-11.52v5.76h-5.76v-11.52h5.76v-5.76h5.76v-5.76h5.76v-5.76h5.76v-5.76h5.76V1331.6h5.76v-5.76h5.76v-5.76h5.76v-11.52h5.76v-5.76h5.76v-11.52h5.76Z" transform="translate(-1170.7519 -1154.14907)"/><path class="cls-8" d="M1452.56,1302.8h5.76v5.76h5.76v11.52h-5.76v-5.76h-5.76Z" transform="translate(-1170.7519 -1154.14907)"/><path class="cls-8" d="M1464.08,1320.08h5.76v5.76h-5.76Z" transform="translate(-1170.7519 -1154.14907)"/><path class="cls-8" d="M1469.84,1325.84h5.76v5.76h-5.76Z" transform="translate(-1170.7519 -1154.14907)"/><path class="cls-8" d="M1475.6,1331.6h5.76v5.76h-5.76Z" transform="translate(-1170.7519 -1154.14907)"/><path class="cls-8" d="M1492.88,1343.12h5.76v5.76h-5.76Z" transform="translate(-1170.7519 -1154.14907)"/><path class="cls-8" d="M1498.64,1348.88h5.76v5.76h-5.76Z" transform="translate(-1170.7519 -1154.14907)"/><path class="cls-8" d="M1504.4,1354.64h5.76v5.76h-5.76Z" transform="translate(-1170.7519 -1154.14907)"/><path class="cls-8" d="M1510.16,1360.4h5.76v5.76h5.76v11.52h-5.76v-5.76h-5.76Z" transform="translate(-1170.7519 -1154.14907)"/><path class="cls-8" d="M1394.96,1371.92h5.76v5.76h-5.76Z" transform="translate(-1170.7519 -1154.14907)"/><path class="cls-7" d="M1331.6,1377.68h5.76v5.76h-5.76Z" transform="translate(-1170.7519 -1154.14907)"/><path class="cls-7" d="M1354.64,1377.68h34.56v5.76h-23.04v5.76h-5.76v5.76h-11.52v5.76h-5.76v5.76h-5.76v5.76h-5.76V1418h-5.76v5.76h-5.76v5.76h-5.76v5.76h-5.76v17.28h-5.76v28.8h-5.76v-5.76h-5.76v-28.8h5.76v-17.28h5.76v-5.76h5.76V1418h5.76v-5.76h5.76v-5.76h11.52v-5.76h5.76v-5.76h5.76v-5.76h5.76v-5.76h5.76Z" transform="translate(-1170.7519 -1154.14907)"/><path class="cls-7" d="M1400.72,1377.68h5.76v11.52h-5.76Z" transform="translate(-1170.7519 -1154.14907)"/><path class="cls-8" d="M1441.04,1377.68h28.8v5.76H1446.8v11.52h-5.76V1418h5.76v11.52h5.76v11.52h-5.76v-5.76h-5.76v-11.52h-5.76v-11.52h-5.76v-17.28h5.76v-11.52h5.76Z" transform="translate(-1170.7519 -1154.14907)"/><path class="cls-8" d="M1488.12,1376.68h5.76v5.76h-5.76Z" transform="translate(-1170.7519 -1154.14907)"/><path class="cls-8" d="M1521.68,1377.68h5.76v5.76h-5.76Z" transform="translate(-1170.7519 -1154.14907)"/><path class="cls-7" d="M1323.87042,1383.65279h7.51679v7.5168h-7.51679Z" transform="translate(-1170.7519 -1154.14907)"/><path class="cls-8" d="M1492.88,1383.44h5.76v5.76h-5.76Z" transform="translate(-1170.7519 -1154.14907)"/><path class="cls-8" d="M1527.44,1383.44h5.76v5.76h-5.76Z" transform="translate(-1170.7519 -1154.14907)"/><path class="cls-7" d="M1320.08,1389.2h5.76v5.76h-5.76Z" transform="translate(-1170.7519 -1154.14907)"/><path class="cls-8" d="M1498.64,1389.2h5.76v5.76h-5.76Z" transform="translate(-1170.7519 -1154.14907)"/><path class="cls-8" d="M1533.2,1389.2h5.76v5.76h5.76v11.52h5.76V1418h5.76v11.52H1562v46.08h-5.76v11.52h-5.76v5.76h-5.76v5.76H1533.2v5.76h-17.28v-5.76h5.76v-5.76h11.52v-5.76h5.76v-5.76h5.76v-11.52h5.76v-46.08h-5.76v-11.52h-5.76v-11.52h-5.76Z" transform="translate(-1170.7519 -1154.14907)"/><path class="cls-7" d="M1314.32,1394.96h5.76v5.76h-5.76Z" transform="translate(-1170.7519 -1154.14907)"/><path class="cls-8" d="M1504.4,1394.96h5.76v5.76h-5.76Z" transform="translate(-1170.7519 -1154.14907)"/><path class="cls-8" d="M1400.72,1418h5.76v17.28h-5.76Z" transform="translate(-1170.7519 -1154.14907)"/><path class="cls-8" d="M1418,1418h5.76v17.28H1418Z" transform="translate(-1170.7519 -1154.14907)"/><path class="cls-7" d="M1394.96,1435.28h5.76v23.04h-5.76v5.76h-5.76v5.76h-5.76v5.76h-5.76v5.76h-5.76v5.76H1360.4v5.76h-11.52v5.76H1331.6v5.76h-17.28v-5.76h5.76v-5.76h17.28v-5.76h11.52v-5.76h11.52v-5.76h5.76v-5.76h5.76v-5.76h5.76v-5.76h5.76v-5.76h5.76v-11.52h5.76Z" transform="translate(-1170.7519 -1154.14907)"/><path class="cls-8" d="M1423.76,1435.28h5.76v5.76h5.76v28.8h5.76v17.28h5.76v11.52h-5.76v-5.76h-5.76v-11.52h-5.76v-17.28h-5.76Z" transform="translate(-1170.7519 -1154.14907)"/><path class="cls-8" d="M1452.56,1441.04h5.76v5.76h5.76v11.52h-5.76v-5.76h-5.76Z" transform="translate(-1170.7519 -1154.14907)"/><path class="cls-8" d="M1464.08,1458.32h5.76v5.76h-5.76Z" transform="translate(-1170.7519 -1154.14907)"/><path class="cls-8" d="M1469.84,1464.08h5.76v5.76h-5.76Z" transform="translate(-1170.7519 -1154.14907)"/><path class="cls-8" d="M1487.12,1475.6h5.76v5.76h-5.76Z" transform="translate(-1170.7519 -1154.14907)"/><path class="cls-8" d="M1498.64,1492.88h5.76v5.76h-5.76Z" transform="translate(-1170.7519 -1154.14907)"/><path class="cls-8" d="M1446.8,1498.64h5.76v5.76h-5.76Z" transform="translate(-1170.7519 -1154.14907)"/><path class="cls-8" d="M1452.56,1504.4h5.76v5.76h-5.76Z" transform="translate(-1170.7519 -1154.14907)"/><path class="cls-8" d="M1458.32,1510.16h5.76v5.76h5.76v5.76h-92.16v-5.76h80.64Z" transform="translate(-1170.7519 -1154.14907)"/></g><g id="图层_3" data-name="图层 3"><path class="cls-9" d="M1346.84,1536.48h28.8v5.76H1352.6V1548h-5.76v5.76h23.04v5.76h-22.32V1566h-6.48q.36,5.7594.72,11.52h-6.48v5.04h-5.76v-11.52h5.76v-11.52h5.76v-17.28h5.76Z" transform="translate(-1170.7519 -1154.14907)"/><path class="cls-10" d="M1387.16,1536.48h28.8v5.76h-23.04V1548h-5.76v5.76h23.04v11.52h-5.04q-.36,5.7594-.72,11.52h-5.76v5.76h-28.8v-11.52h5.76v-5.76h-.72c-.1286-1.0101.502.2746.72-.72v-5.04h5.76v-17.28h5.76Z" transform="translate(-1170.7519 -1154.14907)"/><path class="cls-11" d="M1433.24,1536.48h11.52V1548H1439v17.28h-5.04q-.36,5.7594-.72,11.52H1439v5.76h-23.04v-5.76h11.52v-17.28h5.76V1548h-5.76v-5.76h5.76Z" transform="translate(-1170.7519 -1154.14907)"/><path class="cls-12" d="M1490.84,1536.48h5.76V1548h-5.76v11.52h-5.76q.36,6.1194.72,12.24h-.72v5.04h-5.76v5.76h-28.8v-17.28h5.76v-5.76h5.76v-5.76h23.04v-11.52h5.76Z" transform="translate(-1170.7519 -1154.14907)"/><path class="cls-13" d="M1398.68,1564.56v-5.04h-11.52v5.76h-5.04q-.36,5.7594-.72,11.52h11.52v-5.76h5.76v-5.76" transform="translate(-1170.7519 -1154.14907)"/><path class="cls-13" d="M1479.32,1564.56v-5.04H1467.8v5.76h-5.04v6.48h-6.48v5.04h17.28v-5.76h5.76v-5.76" transform="translate(-1170.7519 -1154.14907)"/><path class="cls-8" d="M1352.6,1542.24h28.8V1548h-23.04v5.76h-11.52V1548h5.76Z" transform="translate(-1170.7519 -1154.14907)"/><path class="cls-8" d="M1392.92,1542.24h28.8V1548h-23.04v5.76h-11.52V1548h5.76Z" transform="translate(-1170.7519 -1154.14907)"/><path class="cls-8" d="M1444.76,1542.24h5.76v11.52h-5.76v17.28H1439v5.76h-5.76v-11.52H1439V1548h5.76Z" transform="translate(-1170.7519 -1154.14907)"/><path class="cls-8" d="M1496.6,1542.24h5.76v11.52h-5.76v11.52h-5.76v17.28h-5.76v5.76h-28.8v-5.76h23.04v-5.76h5.76v-17.28h5.76V1548h5.76Z" transform="translate(-1170.7519 -1154.14907)"/><path class="cls-8" d="M1346.84,1559.52h28.8v5.76H1352.6v5.76h-5.76v11.52h-5.76v5.76h-5.76V1576.8h5.76v-11.52h5.76Z" transform="translate(-1170.7519 -1154.14907)"/><path class="cls-8" d="M1387.16,1559.52h11.52v5.76h-5.76v5.76h-5.76v5.76h-5.76v-11.52h5.76Z" transform="translate(-1170.7519 -1154.14907)"/><path class="cls-8" d="M1410.2,1559.52h5.76v11.52h-5.76v11.52h-5.76v5.76h-28.8v-5.76h23.04v-5.76h5.76v-11.52h5.76Z" transform="translate(-1170.7519 -1154.14907)"/><path class="cls-8" d="M1467.8,1559.52h11.52v5.76h-5.76v5.76h-5.76v5.76h-11.52v-5.76h5.76v-5.76h5.76Z" transform="translate(-1170.7519 -1154.14907)"/><path class="cls-8" d="M1421.72,1582.56h23.04v5.76h-23.04Z" transform="translate(-1170.7519 -1154.14907)"/></g></svg>