<svg xmlns="http://www.w3.org/2000/svg" width="1050" height="450"  version="1.1"><style>.text{font-family:"微软雅黑";text-anchor:middle;font-size:13px;font-weight:400;line-height:125%;}</style><defs><marker id="SvgjsMarker1298" markerWidth="13" markerHeight="9" refX="9.5" refY="4.5" orient="auto"><path d="m3.5 1.5 6 3L3.5 7.5L0"/></marker><marker id="SvgjsMarker1306" markerWidth="13" markerHeight="9" refX="9.5" refY="4.5" orient="auto"><path d="m3.5 1.5 6 3L3.5 7.5L0"/></marker><marker id="SvgjsMarker1334" markerWidth="13" markerHeight="9" refX="9.5" refY="4.5" orient="auto"><path d="m3.5 1.5 6 3L3.5 7.5L0"/></marker><marker id="SvgjsMarker1342" markerWidth="13" markerHeight="9" refX="9.5" refY="4.5" orient="auto"><path d="m3.5 1.5 6 3L3.5 7.5L0"/></marker><marker id="SvgjsMarker1354" markerWidth="13" markerHeight="9" refX="9.5" refY="4.5" orient="auto"><path d="m3.5 1.5 6 3L3.5 7.5L0"/></marker><marker id="SvgjsMarker1362" markerWidth="13" markerHeight="9" refX="9.5" refY="4.5" orient="auto"><path d="m3.5 1.5 6 3L3.5 7.5L0"/></marker><marker id="SvgjsMarker1442" markerWidth="13" markerHeight="9" refX="9.5" refY="4.5" orient="auto"><path d="m3.5 1.5 6 3L3.5 7.5L0"/></marker><marker id="SvgjsMarker1456" markerWidth="13" markerHeight="9" refX="9.5" refY="4.5" orient="auto"><path d="m3.5 1.5 6 3L3.5 7.5L0"/></marker><marker id="SvgjsMarker1470" markerWidth="13" markerHeight="9" refX="9.5" refY="4.5" orient="auto"><path d="m3.5 1.5 6 3L3.5 7.5L0"/></marker><marker id="SvgjsMarker1498" markerWidth="13" markerHeight="9" refX="9.5" refY="4.5" orient="auto"><path d="m3.5 1.5 6 3L3.5 7.5L0"/></marker><marker id="SvgjsMarker1506" markerWidth="13" markerHeight="9" refX="9.5" refY="4.5" orient="auto"><path d="m3.5 1.5 6 3L3.5 7.5L0"/></marker><marker id="SvgjsMarker1514" markerWidth="13" markerHeight="9" refX="9.5" refY="4.5" orient="auto"><path d="m3.5 1.5 6 3L3.5 7.5L0"/></marker><marker id="SvgjsMarker1518" markerWidth="13" markerHeight="9" refX="9.5" refY="4.5" orient="auto"><path d="m3.5 1.5 6 3L3.5 7.5L0"/></marker><marker id="SvgjsMarker1526" markerWidth="13" markerHeight="9" refX="9.5" refY="4.5" orient="auto"><path d="m3.5 1.5 6 3L3.5 7.5L0"/></marker><pattern patternUnits="userSpaceOnUse" id="pattern_mark_0" width="300" height="300"/><pattern patternUnits="userSpaceOnUse" id="pattern_mark_1" width="300" height="300"/></defs><path fill="none" d="M0 0h1050.344v450.516H0z"/><path fill="url(#pattern_mark_0)" d="M0 0h1050.344v450.516H0z"/><path fill="url(#pattern_mark_1)" d="M0 0h1050.344v450.516H0z"/><path d="M73.984 55.462h187v54h-187z" stroke="#000" stroke-width="1.5" fill="none"/><text class="text" y="7.875" transform="translate(73.984 55.462)"><tspan dy="16.25" x="93.5"><tspan>Function</tspan></tspan><tspan dy="16.25" x="93.5"><tspan>Function() { [native code] }</tspan></tspan></text><path d="M73.984 155.452h187v83.75h-187z" stroke="#000" stroke-width="1.5" fill="none"/><text class="text" y="22.75" transform="translate(73.984 155.452)"><tspan dy="16.25" x="93.5"><tspan>Function.prototype</tspan></tspan><tspan dy="16.25" x="93.5"><tspan>() { [native code] }</tspan></tspan></text><path d="M167.484 284.442v-42.54" stroke="#000" stroke-width="1.5" fill="none" marker-end="url(#SvgjsMarker1298)"/><path fill="#fff" d="M138.484 260.18h58v16h-58z"/><text class="text" y="257.555"><tspan dy="16.25" x="167.484"><tspan>__proto__</tspan></tspan></text><path d="M261.734 197.327h68.05" stroke="#000" stroke-width="1.5" fill="none" marker-end="url(#SvgjsMarker1306)"/><path fill="#fff" d="M266.003 176.327h58v16h-58z"/><text class="text" y="173.702"><tspan dy="16.25" x="295.003"><tspan>__proto__</tspan></tspan></text><path d="M332.484 155.452h226v83.75h-226z" stroke="#000" stroke-width="1.5" fill="none"/><text class="text" y="6.75" transform="translate(332.484 155.452)"><tspan dy="16.25" x="113"><tspan>Object.prototype</tspan></tspan><tspan dy="16.25" x="113"><tspan>{constructor: ƒ, __defineGetter__:</tspan></tspan><tspan dy="16.25" x="113"><tspan> ƒ, __defineSetter__: ƒ, hasOwnPr</tspan></tspan><tspan dy="16.25" x="113"><tspan>operty: ƒ, __lookupGetter__: ƒ, …}</tspan></tspan></text><path d="M332.484 55.462h226v54h-226z" stroke="#000" stroke-width="1.5" fill="none"/><text class="text" y="7.875" transform="translate(332.484 55.462)"><tspan dy="16.25" x="113"><tspan>Object</tspan></tspan><tspan dy="16.25" x="113"><tspan>Object() { [native code] }</tspan></tspan></text><path d="M445.484 154.702v-42.54" stroke="#000" stroke-width="1.5" fill="none" marker-end="url(#SvgjsMarker1334)"/><path fill="#fff" d="M409.984 129.634h71v16h-71z"/><text class="text" y="127.009"><tspan dy="16.25" x="445.484"><tspan>constructor</tspan></tspan></text><path d="M445.484 54.712v-29.25h-401.5v171.865h27.3" stroke="#000" stroke-width="1.5" fill="none" marker-end="url(#SvgjsMarker1342)"/><path d="M332.484 285.192h226v54h-226z" stroke="#000" stroke-width="1.5" fill="none"/><text class="text" y="7.875" transform="translate(332.484 285.192)"><tspan dy="16.25" x="113"><tspan>Object()</tspan></tspan><tspan dy="16.25" x="113"><tspan>{}</tspan></tspan></text><path d="M445.484 284.442v-42.54" stroke="#000" stroke-width="1.5" fill="none" marker-end="url(#SvgjsMarker1354)"/><path fill="#fff" d="M416.484 261.465h58v16h-58z"/><text class="text" y="258.84"><tspan dy="16.25" x="445.484"><tspan>__proto__</tspan></tspan></text><path d="M167.484 154.702v-42.54" stroke="#000" stroke-width="1.5" fill="none" marker-end="url(#SvgjsMarker1362)"/><path fill="#fff" d="M131.984 129.634h71v16h-71z"/><text class="text" y="127.009"><tspan dy="16.25" x="167.484"><tspan>constructor</tspan></tspan></text><path d="M0 0h100v40H0z" fill="none" transform="translate(395.484 352.442)"/><text class="text" y="9.375" transform="translate(395.484 352.442)"><tspan dy="16.25" x="50"><tspan>Object</tspan></tspan></text><path d="M73.984 285.192h187v54h-187z" stroke="#000" stroke-width="1.5" fill="none"/><text class="text" y="7.875" transform="translate(73.984 285.192)"><tspan dy="16.25" x="93.5"><tspan>Function()/function(){}/构</tspan></tspan><tspan dy="16.25" x="93.5"><tspan>造函数/内置函数/()=&gt;{}</tspan></tspan></text><path d="M0 0h100v40H0z" fill="none" transform="translate(821.984 292)"/><text class="text" y="9.375" transform="translate(821.984 292)"><tspan dy="16.25" x="50"><tspan>对象</tspan></tspan></text><path d="M0 0h100v40H0z" fill="none" transform="translate(821.984 62)"/><text class="text" y="9.375" transform="translate(821.984 62)"><tspan dy="16.25" x="50"><tspan>构造函数</tspan></tspan></text><path d="M0 0h100v40H0z" fill="none" transform="translate(821.984 352.442)"/><text class="text" y="9.375" transform="translate(821.984 352.442)"><tspan dy="16.25" x="50"><tspan>类</tspan></tspan></text><path d="M0 0h100v40H0z" fill="none" transform="translate(821.984 177)"/><text class="text" y="9.375" transform="translate(821.984 177)"><tspan dy="16.25" x="50"><tspan>原型</tspan></tspan></text><path d="M0 0h100v40H0z" fill="none" transform="translate(117.484 352.442)"/><text class="text" y="9.375" transform="translate(117.484 352.442)"><tspan dy="16.25" x="50"><tspan>Function</tspan></tspan></text><path d="M629.984 285h192v54h-192z" stroke="#000" stroke-width="1.5" fill="none"/><text class="text" y="7.875" transform="translate(629.984 285)"><tspan dy="16.25" x="96"><tspan>Array()</tspan></tspan><tspan dy="16.25" x="96"><tspan>[]</tspan></tspan></text><path d="M0 0h147v40H0z" fill="none" transform="translate(652.484 352.442)"/><text class="text" y="9.375" transform="translate(652.484 352.442)"><tspan dy="16.25" x="73.5"><tspan>Ohter（以Array为例）</tspan></tspan></text><path d="M629.984 55h192v54h-192z" stroke="#000" stroke-width="1.5" fill="none"/><text class="text" y="7.875" transform="translate(629.984 55)"><tspan dy="16.25" x="96"><tspan>Array</tspan></tspan><tspan dy="16.25" x="96"><tspan>Array() { [native code] }</tspan></tspan></text><path d="M921.984 285h103.385v54H921.984z" stroke="#000" stroke-width="1.5" fill="none"/><text class="text" y="16.375" transform="translate(921.984 285)"><tspan dy="16.25" x="52"><tspan>类的对象</tspan></tspan></text><path d="M973.677 284.25v-42.8" stroke="#000" stroke-width="1.5" fill="none" marker-end="url(#SvgjsMarker1442)"/><path fill="#fff" d="M944.677 258.667h58v16h-58z"/><text class="text" y="256.042"><tspan dy="16.25" x="973.677"><tspan>__proto__</tspan></tspan></text><path d="M921.984 177h103.385v61.75H921.984z" stroke="#000" stroke-width="1.5" fill="none"/><text class="text" y="20.25" transform="translate(921.984 177)"><tspan dy="16.25" x="52"><tspan>类的原型对象</tspan></tspan></text><path d="M995.369 176.865v-65.934" stroke="#000" stroke-width="1.5" fill="none" marker-end="url(#SvgjsMarker1456)"/><path fill="#fff" d="M959.869 143.943h71v16h-71z"/><text class="text" y="141.318"><tspan dy="16.25" x="995.369"><tspan>constructor</tspan></tspan></text><path d="M921.984 55h103.385v54H921.984z" stroke="#000" stroke-width="1.5" fill="none"/><text class="text" y="16.375" transform="translate(921.984 55)"><tspan dy="16.25" x="52"><tspan>类的构造函数</tspan></tspan></text><path d="M951.523 109.212v65.396" stroke="#000" stroke-width="1.5" fill="none" marker-end="url(#SvgjsMarker1470)"/><path fill="#fff" d="M920.523 121.044h62v16h-62z"/><text class="text" y="118.419"><tspan dy="16.25" x="951.523"><tspan>prototype</tspan></tspan></text><path d="M0 0h384v77.5H0z" fill="none" transform="translate(38.258 374.397)"/><text class="text" y="11.625" transform="translate(38.258 374.397)"><tspan dy="16.25" x="192"><tspan>JavaScript 中所有的对象都有一个内置属性，称为它的 prototype</tspan></tspan><tspan dy="16.25" x="192"><tspan>（原型）。它本身是一个对象，故原型对象也会有它自己的原型，</tspan></tspan><tspan dy="16.25" x="192"><tspan>逐渐构成了原型链。原型链终止于拥有 null 作为其原型的对象上。</tspan></tspan></text><path d="M629.984 155h192v83.75h-192z" stroke="#000" stroke-width="1.5" fill="none"/><text class="text" y="14.75" transform="translate(629.984 155)"><tspan dy="16.25" x="96"><tspan>Array.prototype</tspan></tspan><tspan dy="16.25" x="96"><tspan>[constructor: ƒ, at: ƒ, conca</tspan></tspan><tspan dy="16.25" x="96"><tspan>t: ƒ, copyWithin: ƒ, fill: ƒ, …]</tspan></tspan></text><path d="M725.984 284.25v-42.8" stroke="#000" stroke-width="1.5" fill="none" marker-end="url(#SvgjsMarker1498)"/><path fill="#fff" d="M696.984 260.25h58v16h-58z"/><text class="text" y="257.625"><tspan dy="16.25" x="725.984"><tspan>__proto__</tspan></tspan></text><path d="M725.984 154.25V111.7" stroke="#000" stroke-width="1.5" fill="none" marker-end="url(#SvgjsMarker1506)"/><path fill="#fff" d="M690.484 130.104h71v16h-71z"/><text class="text" y="127.479"><tspan dy="16.25" x="725.984"><tspan>constructor</tspan></tspan></text><path d="M167.484 54.712v-29.25h-123.5v171.865h27.3" stroke="#000" stroke-width="1.5" fill="none" marker-end="url(#SvgjsMarker1514)"/><path d="M725.984 54.25V25h-682v172.327h27.3" stroke="#000" stroke-width="1.5" fill="none" marker-end="url(#SvgjsMarker1518)"/><path fill="#fff" d="M14.984 107.023h58v16h-58z"/><text class="text" y="104.398"><tspan dy="16.25" x="43.984"><tspan>__proto__</tspan></tspan></text><path d="M629.234 196.875h-68.05" stroke="#000" stroke-width="1.5" fill="none" marker-end="url(#SvgjsMarker1526)"/><path fill="#fff" d="M565.984 176.102h58v16h-58z"/><text class="text" y="173.477"><tspan dy="16.25" x="594.984"><tspan>__proto__</tspan></tspan></text><path d="M0 0h593.23v81.25H0z" fill="none" transform="translate(444.36 372.522)"/><text class="text" y="13.5" style="text-anchor:start" transform="translate(444.36 372.522)"><tspan dy="16.25" x="0"><tspan>①X类的对象.__proto__=X类的原型对象②X类的构造函数.prototype=X类的原型对象</tspan></tspan><tspan dy="16.25" x="0"><tspan>③function(){}/Function()定义的函数可以当类使用，因此有.prototype，不同的是其prototype可写</tspan></tspan><tspan dy="16.25" x="0"><tspan>④class/function/Function定义的类都只能用new创建对象⑤对象.a可以继承自对象.__proto__.a</tspan></tspan></text><path d="M433.335 391v43.333" stroke="#000" stroke-width="1.5" fill="none"/></svg>